<svg width="174.79" height="32.9" viewBox="0 0 174.79 32.9" xmlns="http://www.w3.org/2000/svg"><g id="svgGroup" stroke-linecap="round" fill-rule="evenodd" font-size="9pt" stroke="#ffffff" stroke-width="0.25mm" fill="#ffffff" style="stroke:#ffffff;stroke-width:0.25mm;fill:#ffffff"><path d="M 163.31 25.515 L 163.31 20.44 L 166.6 17.045 L 171.99 25.515 L 174.79 25.515 L 168.245 15.33 L 174.755 8.575 L 171.71 8.575 L 163.31 17.325 L 163.31 0 L 160.895 0 L 160.895 25.515 L 163.31 25.515 Z M 2.415 25.515 L 2.415 16.66 A 8.718 8.718 0 0 1 2.821 13.917 C 3.562 11.684 5.295 10.325 7.84 10.325 A 5.508 5.508 0 0 1 10.02 10.715 C 11.533 11.365 12.425 12.884 12.425 15.68 L 12.425 25.515 L 14.84 25.515 L 14.84 15.155 C 14.84 11.595 13.502 9.082 10.361 8.344 A 9.188 9.188 0 0 0 8.26 8.12 C 5.81 8.12 3.57 9.345 2.45 11.515 L 2.1 8.575 L 0 8.575 L 0 25.515 L 2.415 25.515 Z M 50.05 8.575 L 50.05 17.57 C 50.05 21.329 48.371 23.47 45.498 23.737 A 6.795 6.795 0 0 1 44.87 23.765 A 4.958 4.958 0 0 1 42.589 23.285 C 41.485 22.719 40.736 21.614 40.484 19.784 A 10.862 10.862 0 0 1 40.39 18.305 L 40.39 8.54 L 37.94 8.54 L 37.94 19.075 C 37.94 23.205 40.11 25.935 44.1 25.935 C 46.76 25.935 49.105 24.605 50.05 22.645 L 50.365 25.515 L 52.465 25.515 L 52.465 8.575 L 50.05 8.575 Z M 101.745 16.345 L 98.84 15.61 A 6.27 6.27 0 0 1 97.758 15.247 C 97.388 15.08 97.08 14.884 96.832 14.661 A 2.213 2.213 0 0 1 96.075 12.95 C 96.075 11.13 97.405 10.115 99.785 10.115 A 5.199 5.199 0 0 1 101.294 10.32 C 102.653 10.732 103.442 11.752 103.495 13.23 L 105.84 13.23 C 105.735 10.08 103.425 8.12 99.855 8.12 C 97.582 8.12 95.76 8.857 94.711 10.134 A 4.397 4.397 0 0 0 93.73 12.985 A 4.023 4.023 0 0 0 95.581 16.513 C 96.243 16.962 97.083 17.314 98.105 17.57 L 101.01 18.305 A 7.332 7.332 0 0 1 101.991 18.612 C 103.241 19.114 103.705 19.86 103.705 21 C 103.705 22.551 102.587 23.593 100.633 23.868 A 7.866 7.866 0 0 1 99.54 23.94 C 97.16 23.94 95.69 22.715 95.69 20.755 L 93.38 20.755 A 4.903 4.903 0 0 0 94.354 23.804 C 95.39 25.152 97.206 25.935 99.575 25.935 A 9.077 9.077 0 0 0 102.351 25.53 C 103.379 25.2 104.227 24.676 104.848 23.994 A 4.497 4.497 0 0 0 106.015 20.895 C 106.015 18.445 104.685 17.08 101.745 16.345 Z M 110.005 32.9 L 112.42 32.9 L 112.42 22.26 A 6.313 6.313 0 0 0 117.299 25.821 A 9.06 9.06 0 0 0 118.755 25.935 C 123.76 25.935 126.595 22.085 126.595 16.975 A 10.836 10.836 0 0 0 125.743 12.61 C 124.604 10.02 122.367 8.314 119.296 8.136 A 9.312 9.312 0 0 0 118.755 8.12 C 116.014 8.12 113.699 9.298 112.473 11.748 A 7.426 7.426 0 0 0 112.35 12.005 L 112.105 8.575 L 110.005 8.575 L 110.005 32.9 Z M 79.975 22.54 L 80.29 25.515 L 82.32 25.515 L 82.32 14.56 A 7.971 7.971 0 0 0 81.941 12.016 C 81.038 9.328 78.608 8.12 75.53 8.12 A 9.558 9.558 0 0 0 72.488 8.581 C 71.283 8.986 70.308 9.646 69.632 10.514 A 5.167 5.167 0 0 0 68.565 13.755 L 70.77 13.755 A 3.333 3.333 0 0 1 71.388 11.732 C 72.048 10.836 73.216 10.293 74.788 10.175 A 8.953 8.953 0 0 1 75.46 10.15 C 77.945 10.15 79.94 11.2 79.94 14.525 L 79.94 15.085 L 74.34 15.54 A 10.453 10.453 0 0 0 71.7 16.071 C 70.746 16.407 69.957 16.885 69.357 17.492 A 4.729 4.729 0 0 0 68.005 20.93 C 68.005 23.178 69.224 24.886 71.375 25.587 A 7.646 7.646 0 0 0 73.745 25.935 A 8.35 8.35 0 0 0 76.673 25.434 A 5.875 5.875 0 0 0 79.975 22.54 Z M 141.54 22.54 L 141.855 25.515 L 143.885 25.515 L 143.885 14.56 A 7.971 7.971 0 0 0 143.506 12.016 C 142.603 9.328 140.173 8.12 137.095 8.12 A 9.558 9.558 0 0 0 134.053 8.581 C 132.848 8.986 131.873 9.646 131.197 10.514 A 5.167 5.167 0 0 0 130.13 13.755 L 132.335 13.755 A 3.333 3.333 0 0 1 132.953 11.732 C 133.613 10.836 134.781 10.293 136.353 10.175 A 8.953 8.953 0 0 1 137.025 10.15 C 139.51 10.15 141.505 11.2 141.505 14.525 L 141.505 15.085 L 135.905 15.54 A 10.453 10.453 0 0 0 133.265 16.071 C 132.311 16.407 131.522 16.885 130.922 17.492 A 4.729 4.729 0 0 0 129.57 20.93 C 129.57 23.178 130.789 24.886 132.94 25.587 A 7.646 7.646 0 0 0 135.31 25.935 A 8.35 8.35 0 0 0 138.238 25.434 A 5.875 5.875 0 0 0 141.54 22.54 Z M 34.3 20.44 L 31.99 20.44 A 4.45 4.45 0 0 1 30.533 22.75 C 29.968 23.211 29.268 23.533 28.441 23.709 A 7.805 7.805 0 0 1 26.81 23.87 A 6.339 6.339 0 0 1 24.035 23.289 C 22.104 22.358 20.975 20.342 20.83 17.459 A 12.289 12.289 0 0 1 20.825 17.36 L 34.3 17.36 L 34.3 16.17 A 9.106 9.106 0 0 0 33.479 12.264 C 32.37 9.915 30.204 8.398 27.406 8.154 A 9.302 9.302 0 0 0 26.6 8.12 A 7.937 7.937 0 0 0 21.828 9.608 C 19.733 11.148 18.48 13.783 18.48 17.045 A 10.404 10.404 0 0 0 19.31 21.261 C 20.529 24.023 23.017 25.759 26.268 25.922 A 10.122 10.122 0 0 0 26.775 25.935 A 9.612 9.612 0 0 0 29.81 25.484 C 32.106 24.722 33.646 23.006 34.3 20.44 Z M 89.67 25.515 L 89.67 0 L 87.255 0 L 87.255 25.515 L 89.67 25.515 Z M 59.955 11.2 L 59.78 8.575 L 57.505 8.575 L 57.505 25.515 L 59.92 25.515 L 59.92 15.855 A 6.229 6.229 0 0 1 60.399 13.368 C 61.073 11.811 62.429 10.803 64.251 10.581 A 6.457 6.457 0 0 1 65.03 10.535 L 66.36 10.535 L 66.36 8.365 A 6.886 6.886 0 0 0 65.903 8.273 C 65.692 8.238 65.493 8.217 65.294 8.204 A 8.181 8.181 0 0 0 64.785 8.19 A 6.079 6.079 0 0 0 62.63 8.563 A 4.441 4.441 0 0 0 59.955 11.2 Z M 151.165 11.2 L 150.99 8.575 L 148.715 8.575 L 148.715 25.515 L 151.13 25.515 L 151.13 15.855 A 6.229 6.229 0 0 1 151.609 13.368 C 152.283 11.811 153.639 10.803 155.461 10.581 A 6.457 6.457 0 0 1 156.24 10.535 L 157.57 10.535 L 157.57 8.365 A 6.886 6.886 0 0 0 157.113 8.273 C 156.902 8.238 156.703 8.217 156.504 8.204 A 8.181 8.181 0 0 0 155.995 8.19 A 6.079 6.079 0 0 0 153.84 8.563 A 4.441 4.441 0 0 0 151.165 11.2 Z M 113.027 13.858 A 8.518 8.518 0 0 0 112.455 17.045 C 112.455 19.747 113.505 21.941 115.393 23.027 A 5.827 5.827 0 0 0 118.335 23.765 C 120.89 23.765 122.701 22.394 123.567 20.253 A 8.558 8.558 0 0 0 124.145 17.045 A 9.04 9.04 0 0 0 123.786 14.446 C 123.035 11.945 121.13 10.325 118.335 10.325 C 115.741 10.325 113.9 11.694 113.027 13.858 Z M 31.885 15.61 L 20.895 15.61 A 7.382 7.382 0 0 1 21.73 12.937 C 22.633 11.312 24.171 10.319 26.178 10.198 A 6.991 6.991 0 0 1 26.6 10.185 C 29.785 10.185 31.885 12.355 31.885 15.61 Z M 74.935 17.29 L 79.94 16.905 L 79.94 17.815 A 7.723 7.723 0 0 1 79.443 20.655 C 78.63 22.712 76.85 23.975 74.305 23.975 A 5.82 5.82 0 0 1 72.663 23.76 C 71.294 23.356 70.455 22.385 70.455 20.86 C 70.455 19.32 71.315 18.105 73.358 17.556 A 9.207 9.207 0 0 1 74.935 17.29 Z M 136.5 17.29 L 141.505 16.905 L 141.505 17.815 A 7.723 7.723 0 0 1 141.008 20.655 C 140.195 22.712 138.415 23.975 135.87 23.975 A 5.82 5.82 0 0 1 134.228 23.76 C 132.859 23.356 132.02 22.385 132.02 20.86 C 132.02 19.32 132.88 18.105 134.923 17.556 A 9.207 9.207 0 0 1 136.5 17.29 Z" vector-effect="non-scaling-stroke"/></g></svg>